<mxfile host="app.diagrams.net" modified="2022-12-13T14:48:26.232Z" agent="5.0 (Windows NT 10.0; WOW64) AppleWebKit/537.36 (KHTML, like Gecko) Chrome/108.0.0.0 Safari/537.36" version="20.6.2" etag="vxWfIc4sC3a5EfrBcIds" type="github">
  <diagram id="pkPBzq_F2FkeLmz5j-t2" name="Page-1">
    <mxGraphModel dx="868" dy="1536" grid="1" gridSize="10" guides="1" tooltips="1" connect="1" arrows="1" fold="1" page="1" pageScale="1" pageWidth="850" pageHeight="1100" math="0" shadow="0">
      <root>
        <mxCell id="0" />
        <mxCell id="1" parent="0" />
        <mxCell id="_LxGCqmfsSir6SBeD6TM-1" value="" style="rounded=1;whiteSpace=wrap;html=1;direction=south;dashed=1;strokeColor=#3333FF;strokeWidth=3;fontStyle=1;fontFamily=Verdana;" vertex="1" parent="1">
          <mxGeometry x="130" y="20" width="600" height="470" as="geometry" />
        </mxCell>
        <mxCell id="_LxGCqmfsSir6SBeD6TM-2" value="" style="rounded=0;whiteSpace=wrap;html=1;dashed=1;strokeColor=#3333FF;strokeWidth=2;labelPosition=right;verticalLabelPosition=bottom;align=left;verticalAlign=top;" vertex="1" parent="1">
          <mxGeometry x="150" y="180" width="160" height="180" as="geometry" />
        </mxCell>
        <mxCell id="_LxGCqmfsSir6SBeD6TM-3" value="Bastion" style="aspect=fixed;html=1;points=[];align=center;image;fontSize=12;image=img/lib/azure2/compute/Virtual_Machine.svg;dashed=1;strokeColor=#3333FF;strokeWidth=3;fontFamily=Verdana;fontStyle=1" vertex="1" parent="1">
          <mxGeometry x="206.28" y="200" width="47.44" height="44" as="geometry" />
        </mxCell>
        <mxCell id="_LxGCqmfsSir6SBeD6TM-4" value="Terraform" style="aspect=fixed;html=1;points=[];align=center;image;fontSize=12;image=img/lib/azure2/compute/Virtual_Machine.svg;dashed=1;strokeColor=#3333FF;strokeWidth=3;fontFamily=Verdana;fontStyle=1" vertex="1" parent="1">
          <mxGeometry x="206.28" y="270" width="47.44" height="44" as="geometry" />
        </mxCell>
        <mxCell id="_LxGCqmfsSir6SBeD6TM-5" value="" style="rounded=0;whiteSpace=wrap;html=1;dashed=1;strokeColor=#3333FF;strokeWidth=2;" vertex="1" parent="1">
          <mxGeometry x="350" y="50" width="160" height="160" as="geometry" />
        </mxCell>
        <mxCell id="_LxGCqmfsSir6SBeD6TM-7" value="AKS" style="aspect=fixed;html=1;points=[];align=center;image;fontSize=12;image=img/lib/azure2/containers/Kubernetes_Services.svg;dashed=1;strokeColor=#3333FF;strokeWidth=2;fontFamily=Verdana;" vertex="1" parent="1">
          <mxGeometry x="396" y="100" width="68" height="60" as="geometry" />
        </mxCell>
        <mxCell id="_LxGCqmfsSir6SBeD6TM-8" value="" style="aspect=fixed;html=1;points=[];align=center;image;fontSize=12;image=img/lib/azure2/networking/Virtual_Networks.svg;dashed=1;strokeColor=#3333FF;strokeWidth=2;fontFamily=Verdana;" vertex="1" parent="1">
          <mxGeometry x="600" width="67" height="40" as="geometry" />
        </mxCell>
        <mxCell id="_LxGCqmfsSir6SBeD6TM-9" value="VNET: DTIC Zone C&amp;nbsp;" style="text;html=1;strokeColor=none;fillColor=none;align=center;verticalAlign=middle;whiteSpace=wrap;rounded=0;dashed=1;strokeWidth=2;fontFamily=Verdana;fontStyle=1;fontSize=15;" vertex="1" parent="1">
          <mxGeometry x="170" y="20" width="196.28" height="30" as="geometry" />
        </mxCell>
        <mxCell id="_LxGCqmfsSir6SBeD6TM-10" value="NSG" style="aspect=fixed;html=1;points=[];align=center;image;fontSize=12;image=img/lib/azure2/networking/Network_Security_Groups.svg;dashed=1;strokeColor=#3333FF;strokeWidth=2;fontFamily=Verdana;fontColor=#3333FF;fontStyle=1" vertex="1" parent="1">
          <mxGeometry x="160" y="190" width="31.29" height="38" as="geometry" />
        </mxCell>
        <mxCell id="_LxGCqmfsSir6SBeD6TM-11" value="Subnet" style="text;html=1;strokeColor=none;fillColor=none;align=center;verticalAlign=middle;whiteSpace=wrap;rounded=0;dashed=1;strokeWidth=2;fontFamily=Verdana;fontSize=10;fontColor=#000000;fontStyle=1" vertex="1" parent="1">
          <mxGeometry x="238.14" y="330" width="60" height="30" as="geometry" />
        </mxCell>
        <mxCell id="_LxGCqmfsSir6SBeD6TM-12" value="Subnet" style="text;html=1;strokeColor=none;fillColor=none;align=center;verticalAlign=middle;whiteSpace=wrap;rounded=0;dashed=1;strokeWidth=2;fontFamily=Verdana;fontSize=10;fontColor=#000000;fontStyle=1" vertex="1" parent="1">
          <mxGeometry x="440" y="180" width="60" height="30" as="geometry" />
        </mxCell>
        <mxCell id="_LxGCqmfsSir6SBeD6TM-13" value="NSG" style="aspect=fixed;html=1;points=[];align=center;image;fontSize=12;image=img/lib/azure2/networking/Network_Security_Groups.svg;dashed=1;strokeColor=#3333FF;strokeWidth=2;fontFamily=Verdana;fontColor=#3333FF;fontStyle=1" vertex="1" parent="1">
          <mxGeometry x="360" y="60" width="31.29" height="38" as="geometry" />
        </mxCell>
      </root>
    </mxGraphModel>
  </diagram>
</mxfile>
